# Blender 3.4.1
# www.blender.org
mtllib wood3.mtl
o Cylinder
v 250.000000 -0.000151 -2000.000000
v 250.000000 0.000151 2000.000000
v 245.196304 -48.772732 -2000.000000
v 245.196304 -48.772427 2000.000000
v 230.969879 -95.671021 -2000.000000
v 230.969879 -95.670723 2000.000000
v 207.867401 -138.892715 -2000.000000
v 207.867401 -138.892410 2000.000000
v 176.776688 -176.776855 -2000.000000
v 176.776688 -176.776566 2000.000000
v 138.892563 -207.867569 -2000.000000
v 138.892563 -207.867264 2000.000000
v 95.670860 -230.970032 -2000.000000
v 95.670860 -230.969727 2000.000000
v 48.772575 -245.196472 -2000.000000
v 48.772575 -245.196182 2000.000000
v 0.000000 -250.000153 -2000.000000
v 0.000000 -249.999847 2000.000000
v -48.772575 -245.196472 -2000.000000
v -48.772575 -245.196182 2000.000000
v -95.670860 -230.970032 -2000.000000
v -95.670860 -230.969727 2000.000000
v -138.892563 -207.867569 -2000.000000
v -138.892563 -207.867264 2000.000000
v -176.776688 -176.776855 -2000.000000
v -176.776688 -176.776566 2000.000000
v -207.867401 -138.892715 -2000.000000
v -207.867401 -138.892410 2000.000000
v -230.969879 -95.671021 -2000.000000
v -230.969879 -95.670723 2000.000000
v -245.196304 -48.772732 -2000.000000
v -245.196304 -48.772427 2000.000000
v -250.000000 -0.000151 -2000.000000
v -250.000000 0.000151 2000.000000
v -245.196304 48.772427 -2000.000000
v -245.196304 48.772732 2000.000000
v -230.969879 95.670723 -2000.000000
v -230.969879 95.671021 2000.000000
v -207.867401 138.892410 -2000.000000
v -207.867401 138.892715 2000.000000
v -176.776688 176.776566 -2000.000000
v -176.776688 176.776855 2000.000000
v -138.892563 207.867264 -2000.000000
v -138.892563 207.867569 2000.000000
v -95.670860 230.969727 -2000.000000
v -95.670860 230.970032 2000.000000
v -48.772575 245.196182 -2000.000000
v -48.772575 245.196472 2000.000000
v 0.000000 249.999847 -2000.000000
v 0.000000 250.000153 2000.000000
v 48.772575 245.196182 -2000.000000
v 48.772575 245.196472 2000.000000
v 95.670860 230.969727 -2000.000000
v 95.670860 230.970032 2000.000000
v 138.892563 207.867264 -2000.000000
v 138.892563 207.867569 2000.000000
v 176.776688 176.776566 -2000.000000
v 176.776688 176.776855 2000.000000
v 207.867401 138.892410 -2000.000000
v 207.867401 138.892715 2000.000000
v 230.969879 95.670723 -2000.000000
v 230.969879 95.671021 2000.000000
v 245.196304 48.772427 -2000.000000
v 245.196304 48.772732 2000.000000
vn 0.9952 -0.0980 -0.0000
vn 0.9569 -0.2903 -0.0000
vn 0.8819 -0.4714 -0.0000
vn 0.7730 -0.6344 -0.0000
vn 0.6344 -0.7730 -0.0000
vn 0.4714 -0.8819 -0.0000
vn 0.2903 -0.9569 -0.0000
vn 0.0980 -0.9952 -0.0000
vn -0.0980 -0.9952 -0.0000
vn -0.2903 -0.9569 -0.0000
vn -0.4714 -0.8819 -0.0000
vn -0.6344 -0.7730 -0.0000
vn -0.7730 -0.6344 -0.0000
vn -0.8819 -0.4714 -0.0000
vn -0.9569 -0.2903 -0.0000
vn -0.9952 -0.0980 -0.0000
vn -0.9952 0.0980 -0.0000
vn -0.9569 0.2903 -0.0000
vn -0.8819 0.4714 -0.0000
vn -0.7730 0.6344 -0.0000
vn -0.6344 0.7730 -0.0000
vn -0.4714 0.8819 -0.0000
vn -0.2903 0.9569 -0.0000
vn -0.0980 0.9952 -0.0000
vn 0.0980 0.9952 -0.0000
vn 0.2903 0.9569 -0.0000
vn 0.4714 0.8819 -0.0000
vn 0.6344 0.7730 -0.0000
vn 0.7730 0.6344 -0.0000
vn 0.8819 0.4714 -0.0000
vn -0.0000 -0.0000 1.0000
vn 0.9569 0.2903 -0.0000
vn 0.9952 0.0980 -0.0000
vn -0.0000 -0.0000 -1.0000
vt 0.535087 0.022776
vt 0.023940 0.022776
vt 0.803427 0.336003
vt 0.535087 0.965436
vt 0.822850 0.636909
vt 0.023940 0.965436
vt 0.519114 0.022776
vt 0.830587 0.333328
vt 0.519114 0.965436
vt 0.859268 0.634225
vt 0.503140 0.022776
vt 0.856704 0.325406
vt 0.503140 0.965436
vt 0.894286 0.626280
vt 0.487167 0.022776
vt 0.880773 0.312540
vt 0.487167 0.965436
vt 0.926558 0.613376
vt 0.471194 0.022776
vt 0.901870 0.295226
vt 0.471194 0.965436
vt 0.954846 0.596011
vt 0.455220 0.022776
vt 0.919184 0.274130
vt 0.455220 0.965436
vt 0.978061 0.574852
vt 0.439247 0.022776
vt 0.932049 0.250060
vt 0.439247 0.965436
vt 0.995311 0.550711
vt 0.423273 0.022776
vt 0.939972 0.223943
vt 0.423273 0.965436
vt 1.005934 0.524517
vt 0.407300 0.022776
vt 0.942647 0.196783
vt 0.407300 0.965436
vt 1.009520 0.497276
vt 0.391327 0.022776
vt 0.939972 0.169622
vt 0.391327 0.965436
vt 1.005934 0.470035
vt 0.375354 0.022776
vt 0.567196 -0.300698
vt 0.932049 0.143506
vt 0.375354 0.965436
vt 0.567196 1.288910
vt 0.995311 0.443840
vt 0.540260 -0.300698
vt 0.919184 0.119436
vt 0.540260 1.288910
vt 0.978061 0.419700
vt 0.513324 -0.300698
vt 0.901870 0.098339
vt 0.513324 1.288910
vt 0.954846 0.398540
vt 0.486389 -0.300698
vt 0.880773 0.081026
vt 0.486389 1.288910
vt 0.926558 0.381175
vt 0.459453 -0.300698
vt 0.856704 0.068160
vt 0.459453 1.288910
vt 0.894286 0.368272
vt 0.432517 -0.300698
vt 0.830587 0.060238
vt 0.432517 1.288910
vt 0.859268 0.360326
vt 0.405581 -0.300698
vt 0.803427 0.057563
vt 0.405581 1.288910
vt 0.822850 0.357643
vt 0.378645 -0.300698
vt 0.776266 0.060238
vt 0.378645 1.288910
vt 0.786432 0.360326
vt 0.351709 -0.300698
vt 0.750149 0.068160
vt 0.351709 1.288910
vt 0.751414 0.368272
vt 0.324773 -0.300698
vt 0.726080 0.081026
vt 0.324773 1.288910
vt 0.719142 0.381175
vt 0.297837 -0.300698
vt 0.704983 0.098339
vt 0.297837 1.288910
vt 0.690854 0.398540
vt 0.270902 -0.300698
vt 0.687669 0.119436
vt 0.270902 1.288910
vt 0.667639 0.419700
vt 0.243966 -0.300698
vt 0.674804 0.143506
vt 0.243966 1.288910
vt 0.650389 0.443840
vt 0.217030 -0.300698
vt 0.666882 0.169622
vt 0.217030 1.288910
vt 0.639766 0.470035
vt 0.190094 -0.300698
vt 0.664206 0.196783
vt 0.190094 1.288910
vt 0.636180 0.497276
vt 0.163158 -0.300698
vt 0.666882 0.223943
vt 0.163158 1.288910
vt 0.639766 0.524517
vt 0.136222 -0.300698
vt 0.674804 0.250060
vt 0.136222 1.288910
vt 0.650389 0.550711
vt 0.109286 -0.300698
vt 0.687669 0.274130
vt 0.109286 1.288910
vt 0.667639 0.574852
vt 0.082351 -0.300698
vt 0.704983 0.295226
vt 0.082351 1.288910
vt 0.690854 0.596011
vt 0.055415 -0.300698
vt 0.726080 0.312540
vt 0.055415 1.288910
vt 0.719142 0.613376
vt 0.028479 -0.300698
vt 0.750149 0.325406
vt 0.751414 0.626280
vt 0.028479 1.288910
vt 0.001543 -0.300698
vt 0.039913 0.022776
vt 0.776266 0.333328
vt 0.786432 0.634225
vt 0.001543 1.288910
vt 0.039913 0.965436
s 0
usemtl Material.001
f 1/1/1 2/4/1 4/9/1 3/7/1
f 3/7/2 4/9/2 6/13/2 5/11/2
f 5/11/3 6/13/3 8/17/3 7/15/3
f 7/15/4 8/17/4 10/21/4 9/19/4
f 9/19/5 10/21/5 12/25/5 11/23/5
f 11/23/6 12/25/6 14/29/6 13/27/6
f 13/27/7 14/29/7 16/33/7 15/31/7
f 15/31/8 16/33/8 18/37/8 17/35/8
f 17/35/9 18/37/9 20/41/9 19/39/9
f 19/39/10 20/41/10 22/46/10 21/43/10
f 21/44/11 22/47/11 24/51/11 23/49/11
f 23/49/12 24/51/12 26/55/12 25/53/12
f 25/53/13 26/55/13 28/59/13 27/57/13
f 27/57/14 28/59/14 30/63/14 29/61/14
f 29/61/15 30/63/15 32/67/15 31/65/15
f 31/65/16 32/67/16 34/71/16 33/69/16
f 33/69/17 34/71/17 36/75/17 35/73/17
f 35/73/18 36/75/18 38/79/18 37/77/18
f 37/77/19 38/79/19 40/83/19 39/81/19
f 39/81/20 40/83/20 42/87/20 41/85/20
f 41/85/21 42/87/21 44/91/21 43/89/21
f 43/89/22 44/91/22 46/95/22 45/93/22
f 45/93/23 46/95/23 48/99/23 47/97/23
f 47/97/24 48/99/24 50/103/24 49/101/24
f 49/101/25 50/103/25 52/107/25 51/105/25
f 51/105/26 52/107/26 54/111/26 53/109/26
f 53/109/27 54/111/27 56/115/27 55/113/27
f 55/113/28 56/115/28 58/119/28 57/117/28
f 57/117/29 58/119/29 60/123/29 59/121/29
f 59/121/30 60/123/30 62/128/30 61/125/30
f 4/10/31 2/5/31 64/132/31 62/127/31 60/124/31 58/120/31 56/116/31 54/112/31 52/108/31 50/104/31 48/100/31 46/96/31 44/92/31 42/88/31 40/84/31 38/80/31 36/76/31 34/72/31 32/68/31 30/64/31 28/60/31 26/56/31 24/52/31 22/48/31 20/42/31 18/38/31 16/34/31 14/30/31 12/26/31 10/22/31 8/18/31 6/14/31
f 61/125/32 62/128/32 64/133/32 63/129/32
f 63/130/33 64/134/33 2/6/33 1/2/33
f 1/3/34 3/8/34 5/12/34 7/16/34 9/20/34 11/24/34 13/28/34 15/32/34 17/36/34 19/40/34 21/45/34 23/50/34 25/54/34 27/58/34 29/62/34 31/66/34 33/70/34 35/74/34 37/78/34 39/82/34 41/86/34 43/90/34 45/94/34 47/98/34 49/102/34 51/106/34 53/110/34 55/114/34 57/118/34 59/122/34 61/126/34 63/131/34
